<svg xmlns="http://www.w3.org/2000/svg" viewBox="0 0 50 86" width="50" height="86" fill="none"><path fill="currentColor" fill-rule="evenodd" d="M8 0H4v10h2v2h2v28H6v2H4v2H2v2H0v40h36v-2h2v-2h2v-2h2v-2h2v-2h2v-2h2v-2h2V8h-2V6h-2V4h-2V2h-2V0H8Zm34 10H8v2h34v-2Zm-2 32v-2h-6v4h-2v-4H20v4h-2v-4H8v2H6v2H4v2h32v36h2v-2h2v-2h2v-2h2v-2h2v-2h2V8h-2V6h-2V4h-2V2h-2v6h2v2h2v30h-2v2h-2Zm-2 2v2h-2v-2h2Zm0 0h2v-2h-2v2ZM2 84h32V48H2v36Zm8-70h32v24H10V14Zm0-12h2v6h-2V2Zm28 6H14V2h24v6ZM8 2H6v6h2V2Zm6 40h2v2h-2v-2Zm16 0h-2v2h2v-2Zm-20 0h2v2h-2v-2Zm16 0h-2v2h2v-2Zm-2 10h8v14H22V52h2Zm6 12V54h-6v10h6ZM14 16h26v20H12V16h2Zm24 18V18H14v16h24Zm-18-8h2v2h-2v-2Zm10 0h2v2h-2v-2Zm0-4h-2v2h2v-2Zm-8 0h2v2h-2v-2Zm4 34h2v4h-2v-4Zm4-28h-8v2h8v-2Z" clip-rule="evenodd"/></svg>